<?xml version="1.0" encoding="utf-8"?>
<!-- Generator: Adobe Illustrator 16.0.0, SVG Export Plug-In . SVG Version: 6.00 Build 0)  -->
<!DOCTYPE svg PUBLIC "-//W3C//DTD SVG 1.1//EN" "http://www.w3.org/Graphics/SVG/1.1/DTD/svg11.dtd">
<svg version="1.1" id="Capa_1" xmlns="http://www.w3.org/2000/svg" xmlns:xlink="http://www.w3.org/1999/xlink" x="0px" y="0px"
	 width="512px" height="512px" viewBox="0 0 512 512" enable-background="new 0 0 512 512" xml:space="preserve">
<g>
	<path fill="#020202" d="M198.536,256L400.158,54.381c3.418-3.419,5.129-7.355,5.129-11.8s-1.709-8.381-5.129-11.793L374.504,5.134
		C371.083,1.716,367.149,0,362.715,0c-4.447,0-8.381,1.716-11.801,5.134L111.84,244.198c-3.42,3.42-5.125,7.355-5.125,11.8
		c0,4.447,1.705,8.381,5.125,11.801l239.062,239.063c3.425,3.425,7.361,5.134,11.807,5.134c4.44,0,8.374-1.709,11.793-5.134
		l25.655-25.636c3.417-3.42,5.122-7.356,5.122-11.806c0-4.442-1.703-8.376-5.122-11.795L198.536,256z"/>
</g>
</svg>
