<?xml version="1.0" encoding="utf-8"?>
<!DOCTYPE svg PUBLIC "-//W3C//DTD SVG 1.1//EN" "http://www.w3.org/Graphics/SVG/1.1/DTD/svg11.dtd">
<svg version="1.1" xmlns="http://www.w3.org/2000/svg" xmlns:xlink="http://www.w3.org/1999/xlink" x="0px" y="0px"
	 width="600px" height="450px" viewBox="0 0 595.28 841.89" enable-background="new 0 0 595.28 841.89" xml:space="preserve">
	<rect width="595.28" height="841.89"/>
<rect x="-50000" y="-50000" width="100000" height="100000" fill="#c3899d" /><text x="100" y="100" style="text-anchor: middle;dominant-baseline: hanging;" fill="#FFFFFF" font-family="'Helvetica'" font-size="30">600 x 450</text><path fill="#FFFFFF" d="M118.204,416.656c-3.8,0.38-10.26,23.37-10.26,23.37s7.709,14.354,11.97,13.109
	c6.387-1.863,4.56-26.22,4.56-26.22C121.274,424.339,119.789,416.498,118.204,416.656z"/>
<path fill="#FFFFFF" d="M131.884,432.616c-1.52,1.521,2.85,25.08,2.85,25.08s11.868,7.142,15.39,5.13
	c5.315-3.036,5.13-23.939,5.13-23.939C147.247,437.857,135.878,428.621,131.884,432.616z"/>
<path fill="#FFFFFF" d="M410.613,402.977c0,0-7.196,17.312-3.42,21.09c0.95,0.95,41.04-14.25,41.04-14.25l8.55-29.64
	C456.707,380.208,416.22,397.809,410.613,402.977z"/>
<path fill="#FFFFFF" d="M329.647,428.164c0,0-1.499,23.832,5.156,23.832c4.181,0,49.78-15.579,51.87-17.67
	c4.622-4.623,7.409-25.08,7.409-25.08C386.42,411.052,339.721,423.435,329.647,428.164z"/>
<path fill="#FFFFFF" d="M262.414,445.727c0,0-0.493,14.639,0.57,19.95c0.38,1.899,52.82,0.38,59.28-6.841
	c4.241-4.74-6.84-24.51-6.84-24.51C308.83,434.205,262.769,445.673,262.414,445.727z"/>
<path fill="#FFFFFF" d="M216.244,449.716l-2.85,14.82c0,0,33.171,10.548,39.33,2.85c2.28-2.85-0.57-21.09-0.57-21.09
	C240.754,448.576,224.224,450.286,216.244,449.716z"/>
<path fill="#FFFFFF" d="M165.317,443.61c0,0-8.318,15.591-4.933,19.216c2.66,2.851,38,6.271,42.75,2.851
	c4.062-2.926,1.71-18.241,1.71-18.241C195.379,448.468,169.789,441.41,165.317,443.61z"/>
<path fill="#FFFFFF" d="M215.104,531.227c0,0-6.168-25.97-12.541-30.21c-4.627-3.08-21.903-2.423-22.229-0.57
	c-0.57,3.23,9.69,30.21,9.69,30.21C202.886,531,202.945,531.86,215.104,531.227z"/>
<path fill="#FFFFFF" d="M175.204,530.086c0,0-5.7-27.17-7.41-27.93c-4.329-1.924-17.509-6.835-18.81-2.28
	c-0.76,2.66,9.12,25.65,9.12,25.65C162.285,528.187,168.364,529.326,175.204,530.086z"/>
<path fill="#FFFFFF" d="M144.581,523.689c0,0-6.996-20.393-8.516-24.573c-0.807-2.216-8.15-6.375-10.26-5.32
	c-2.28,1.141-0.76,21.471-0.76,21.471C132.996,523.514,132.79,519.407,144.581,523.689z"/>
<path fill="#FFFFFF" d="M82.104,423.496c-6.46,0.761-16.15-8.044-16.15,3.567s7.938,32.723,5.827,46.445
	c-2.111,13.722-21.976,85.773-21.976,101.607s11.927,50.392,77.372,54.613c65.444,4.223,106.16-2.568,151.767-20.413
	c20.286-7.938,64.979-30.78,74.1-34.2c24.787-9.296,93.674-47.081,111.721-60.421c26.22-19.379,32.088-47.414,34.199-55.859
	c2.11-8.444,16.467-24.192,22.8-27.359c6.334-3.167,5.469,0.866,13.912-10.745c8.444-11.611-5.277-12.667-11.61-14.778
	c-6.334-2.111-25.334-14.778-29.557-13.723c-4.222,1.056-24.277-7.388-22.166,5.278c2.111,12.667,19,10.556,19,20.056
	s-22.167-0.001-34.833,4.223c-12.667,4.222-40.644,60.416-64.389,75.999c-33.777,22.166-72.834,29.555-112.944,39.056
	c-33.188,7.86-106.611,4.222-130.889-1.056c-24.452-5.316-44.333-25.333-51.722-41.167c-7.389-15.833-7.389-55.944-2.111-62.277
	c5.277-6.334,6.333-13.723,2.111-15.834C92.343,414.397,88.481,422.746,82.104,423.496z"/>
<path fill="#FFFFFF" d="M432.844,437.746c0,0,0.03-10.823-2.851-11.4c-2.85-0.569-23.939,18.24-23.939,18.24
	s-2.029,21.055,3.42,21.66C414.604,466.816,425.062,447.048,432.844,437.746z"/>
<path fill="#FFFFFF" d="M377.554,494.176c6.878-4.513,16.257-10.871,23.37-19.949c0,0-4.058-19.445-8.551-23.94
	c-2.09-2.09-52.443,17.394-54.149,21.66c-2.279,5.7,12.54,35.91,12.54,35.91C361.397,503.488,367.712,500.635,377.554,494.176z"/>
<g>
	<path fill="#FFFFFF" d="M339.363,512.986c0,0-4.812-34.144-14.25-37.62c-3.609-1.33-49.97,11.97-50.73,14.25
		c-2.913,8.739,2.597,37.894,2.597,37.894C291.593,524.005,325.532,517.871,339.363,512.986z"/>
	<path fill="#FFFFFF" d="M363.99,563.805l2.068-0.628l-0.068-0.226C365.31,563.241,364.644,563.525,363.99,563.805z"/>
</g>
<path fill="#FFFFFF" d="M247.594,529.516c3.76-0.89,13.931,0.299,17.67-0.569c0,0-3.04-34.39-3.991-34.771
	c-9.6-3.841-41.125,1.284-41.04,5.13c0.19,8.551,5.131,32.49,5.131,32.49C233.208,531.071,241.754,530.899,247.594,529.516z"/>
<path fill="#FFFFFF" d="M105.094,427.486c-3.152-0.631-2.85-12.54-2.85-12.54s3.8-7.789,6.459-8.55
	c3.215-0.918,2.419,5.116,3.23,8.359C112.314,416.277,107.944,428.057,105.094,427.486z"/>
<polygon fill="#FFFFFF" points="119.344,511.846 111.934,505.576 105.664,479.355 115.924,492.467 "/>
<path fill="#FFFFFF" d="M38.404,359.657c0-35.359,31.92-44.46,38.76-60.419c5.463-12.748,0-18.241,4.561-29.641
	c4.56-11.399,43.319-36.48,76.38-43.319c33.06-6.84,238.259-13.681,254.219-11.4s44.46,12.54,52.44,27.36
	c7.979,14.82,13.679,41.04,23.939,57c10.26,15.959,42.18,20.52,58.14,46.739c15.96,26.22,12.54,46.74-3.42,50.16
	s-45.6-12.541-57-15.96c-11.399-3.42-20.52-6.839-23.939-13.679c-3.42-6.84-1.141-14.82-2.28-19.381
	c-1.14-4.56-6.84,12.541-10.26,19.381c-3.421,6.84-100.32,45.599-128.819,52.439c-28.5,6.84-98.04,29.64-157.319,9.12
	c-59.281-20.521-47.88-25.08-49.021-31.92c-1.14-6.84,1.14-18.241-2.28-20.521c-3.42-2.279-9.121,19.38-13.68,26.221
	c-4.56,6.84-34.2,13.68-39.9,11.399S38.404,387.017,38.404,359.657z M303.829,379.738c-4.187-4.321-36.675-1.283-44.265-9.821
	c-9.12-10.26-7.98-30.781-19.38-28.501c-11.399,2.28-3.42,5.7-6.84,18.241c-2.93,10.744-30.107,16.162-37.827,21.404
	c-7.336,3.733-14.063,10.062-10.052,15.076c4.561,5.7,29.669,8.165,37.62,6.84c6.84-1.14,5.695-17.376,6.84-19.38
	c3.419-5.985,5.699-7.41,11.399-6.84c4.196,0.42,10.83,3.99,12.54,9.12c0.57,3.42-0.763,7.661,3.42,12.54
	c6.84,7.98,20.52,10.26,33.06,9.12c12.54-1.14,20.52-4.56,23.939-15.959C315.676,386.935,310.832,382.86,303.829,379.738z
	 M217.085,330.287c6.216-8.476-15.627-25.109-31.799-27.31c-16.173-2.201-49.844,6.073-52.476,16.563
	c-2.633,10.489,20.965,20.129,44.835,18.316C201.517,336.042,210.87,338.762,217.085,330.287z M291.483,350.537
	c19.38,7.98,36.48-14.82,53.58-18.24c17.101-3.42,43.32,6.839,52.44,6.839s15.959,2.28,12.539-18.24
	c-3.419-20.52-54.72-34.2-78.659-31.919c-23.94,2.28-53.745,19.55-58.141,34.2C269.823,334.577,272.104,342.556,291.483,350.537z"/>
</svg>
