<?xml version="1.0" encoding="utf-8"?>
<!DOCTYPE svg PUBLIC "-//W3C//DTD SVG 1.1//EN" "http://www.w3.org/Graphics/SVG/1.1/DTD/svg11.dtd">
<svg version="1.1" xmlns="http://www.w3.org/2000/svg" xmlns:xlink="http://www.w3.org/1999/xlink" x="0px" y="0px"
	 width="600px" height="450px" viewBox="0 0 595.28 841.89" enable-background="new 0 0 595.28 841.89" xml:space="preserve">
	<rect width="595.28" height="841.89"/>
<rect x="-50000" y="-50000" width="100000" height="100000" fill="#f3dd71" /><text x="100" y="100" style="text-anchor: middle;dominant-baseline: hanging;" fill="#FFFFFF" font-family="'Helvetica'" font-size="30">600 x 450</text><g id="Layer_2">
	<path fill="#FFFFFF" d="M206,525.669c1.611-2.15,9.667,11.001,10,19.667s-1.333,45.334,0,52s16.667,55.334,15.667,59
		s-11.62,5.332-12.81,8.666s-3.143,10.334,0,11.667s12.143-11.333,15.477-11.333S238,669.668,246,669.002s13.333-6.333,18-6.333
		s7,5.667,12,5.667s8.667-8.667,11.667-8.667s6.999,9.001,14.833,8.667s10.166-5.001,14.5-5.334s6.001,4.001,11.334,3.334
		s5.999-3,9.666-3s8.666,4.333,14,4.333s14-1.667,16.667,0s10.667,9.197,15,9.099s5-2.433,5-5.766s-8.334-13-11.667-14
		s-4.333-6.999-4.333-10.666s6.333-37,7-45.167s5.333-22.833,5.333-26.5s-0.666-35.334,1.334-36.667s5.403,50.039,9.333,58.667
		c9.333,20.492,14.337,47.259,15.667,54c4.088,20.718,4.26,27.299,9.666,44.665c4.05,13.009,2.334,17.999-1,21.666
		s-9.667,18.334-21.667,18.667s-33.334-7.333-46.667-6S275.333,748.334,251,747.334s-42.333-1.667-58.333-24.667s3-46.666,7-49.333
		s7-4,6.667-5.667S204,663,202,663s-7.667,4.334-9.667,6.334s-1.666-11.666-0.333-19s13-47.667,13.333-59.667s3.334-32,2.334-39
		S204,528.338,206,525.669z"/>
	<path fill="#FFFFFF" d="M236,610c-2.802-1.019-3.667-20-2-23s6-10.666,11-10.333s12,8.333,13,12s3.333,16.667,0,20
		S239.667,611.333,236,610z"/>
	<path fill="#FFFFFF" d="M368.218,610c2.802-1.019,3.667-20,2-23s-6-10.666-11-10.333s-12,8.333-13,12s-3.333,16.667,0,20
		S364.551,611.333,368.218,610z"/>
	<path fill="#FFFFFF" d="M267.333,608c1.379,3.035,16.667,4.668,19,2.334s1-18.666,0-21s-2.667-11.355-4.667-12.678
		s-5.333-3.678-8.333,0s-7,8.677-7,13.344S265.667,604.333,267.333,608z"/>
	<path fill="#FFFFFF" d="M338.499,608c-1.38,3.035-17.667,4.668-20,2.334s-1-18.666,0-21s2.667-11.355,4.667-12.678
		s5.333-3.678,8.333,0s8,8.677,8,13.344S340.166,604.333,338.499,608z"/>
	<path fill="#FFFFFF" d="M302.5,573c3.159-0.218,8.833,6.668,9.5,11.334s2,22.162,0,25.414s-15.667,3.414-18,0
		s-1.333-23.747,0-26.414S297.666,573.333,302.5,573z"/>
	<path fill="#FFFFFF" d="M235.333,629c1.677-4.119,5.333-10.334,9-11s15.125,0.333,15.396,4S266,647,262,650s-20.333,7.666-22,5
		S233.647,633.142,235.333,629z"/>
	<path fill="#FFFFFF" d="M272,649.334c-2.442-1.465-4.667-26-4-28s15.667-3.334,17.333-1.667s1,27.334-2,29.667
		S275.333,651.334,272,649.334z"/>
	<path fill="#FFFFFF" d="M296,649.961c-2.6-2.049-5.133-25.295-3.4-27.961s17.846-6.176,20.457-3.088s2.276,28.343-2.057,31.049
		S299.333,652.588,296,649.961z"/>
	<path fill="#FFFFFF" d="M323.667,649.961c-0.907-2.409-5.666-26.295-3.333-28.961s15.594-4.51,19.297-2.088
		s-1.963,28.01-5.297,31.049S324.636,652.534,323.667,649.961z"/>
	<path fill="#FFFFFF" d="M348.334,649.961C346.404,646.403,346,629.666,346,627s1.334-7.843,4.667-8.088s13.667-2.964,14.667-1.104
		s-2,36.193-5.667,39.526s-3.666-3.746-5.333-5.373S349.746,652.564,348.334,649.961z"/>
	<path display="none" d="M488.465,258.464c-12.688,14.983-31.662,21.768-50.35,25.732c-15.878,3.369-32.185,4.443-48.418,4.719
		c-1.045-0.761-2.415-1.118-4.026-0.737c-1.314,0.311-2.635,0.577-3.959,0.815C381.142,288.996,380.57,289,380,289
		c-0.996,0.001-1.838,0.242-2.526,0.646c-9.28,1.2-18.738,1.018-28.08,1.021c-11.436,0.004-22.822,0.57-34.192,1.806
		c-1.542,0.167-3.08,0.369-4.62,0.556c0.31-1.083,0.28-2.3-0.264-3.552c-4.022-9.266-12.319-15.669-16.816-24.623
		c-4.081-8.125,1.903-11.675,5.932-17.651c11.085-16.442-8.386-33.733-17.817-45.038c-11.997-14.381-9.699-33.103-4.565-49.828
		c5.36-17.465,14.489-34.115,25.268-48.813c3.82-5.209-4.864-10.189-8.635-5.047c-11.342,15.468-20.441,32.92-26.276,51.202
		c-5.716,17.913-7.229,37.237,2.853,53.792c4.88,8.014,12.453,14.039,17.783,21.729c2.583,3.727,4.329,7.724,4.253,12.306
		c-0.059,3.573-2.483,6.008-4.725,8.473c-5.979,6.573-6.694,14.671-3.191,22.795c4.101,9.509,12.926,15.99,17.16,25.448
		c-17.894,2.559-35.648,6.098-53.464,9.119c-22.351,3.79-44.973,6.631-67.68,5.345c-23.672-1.34-46.255-8.639-65.873-22.004
		c-5.345-3.642-10.341,5.027-5.047,8.635c19.395,13.214,41.373,20.452,64.624,22.868c23.39,2.43,47.062-0.468,70.162-4.136
		c23.662-3.757,47.115-8.874,70.938-11.576c11.949-1.356,23.933-1.802,35.952-1.807c10.438-0.004,20.956,0.014,31.266-1.677
		c20.015-0.103,40.096-1.276,59.715-5.438c19.73-4.186,40.067-12.269,53.401-28.015
		C499.676,260.647,492.638,253.537,488.465,258.464z"/>
	<g>
		<path fill="#FFFFFF" d="M160.032,282.649c9.741-2.798,19.648-4.989,29.57-7.04c9.882-2.042,19.803-4.56,29.778-6.072
			c9.853-1.493,19.767-2.219,29.728-2.414c8.805-0.172,17.726-0.601,26.462,0.718c10.429,1.575,23.479,6.472,34.827,5.186
			c0.234-0.538,0.58-1.065,1.067-1.564c4.104-4.195,6.628-8.629,7.634-14.394c-0.003-1.059-0.022-2.118-0.064-3.173
			c-0.139-0.506-0.158-1.024-0.081-1.533c-0.155-2.384-0.46-4.741-1.038-7.025c-1.88-7.43-6.352-11.783-11.664-16.998
			c-7.016-6.887-15.248-13.879-14.041-24.723c0.8-7.185,3-14.074,4.949-21.009c1.344-4.783,2.722-9.586,3.64-14.474
			c0.722-3.844,1.911-8.614,1.014-12.517c-2.433-10.581-12.389-17.639-13.687-28.431C287.438,126.404,287,125.344,287,124v-10.659
			C218.68,117.562,124,161.636,124,249c0,18.219,0.944,33.645,2.57,46.846C137.616,291.146,148.481,285.967,160.032,282.649z"/>
		<path fill="#FFFFFF" d="M297,120.8c0.661,0.784,1.059,1.847,1,3.2c-0.258,5.995,3.779,10.547,6.973,15.243
			c3.456,5.084,7.146,11.368,7.027,17.757c-0.168,9.028-2.262,17.82-4.693,26.474c-1.888,6.719-4.909,14.042-5.168,21.091
			c-0.151,4.104,1.386,6.775,4.175,9.713c4.704,4.955,10.17,9.308,14.482,14.6c5.424,6.654,7.28,14.448,7.905,22.528
			c0.04,0.088,0.082,0.175,0.12,0.265c1.203,2.881,1.987,6.034,3.567,8.743c1.448,2.481,3.099,3.362,5.94,3.765
			c0.71,0.101,1.331,0.413,1.852,0.857c12.247-2.236,24.248-5.713,36.522-8.026c17.388-3.278,34.766-3.619,51.697,2.163
			c15.896,5.428,29.501,13.34,40.129,26.525c4.303,5.338,6.891,11.751,8.769,18.299C479.611,289.104,481,271.106,481,249
			c0-92-105-136-173.64-136h-9.72c-0.211,0-0.428,0.005-0.64,0.006V120.8z"/>
		<path fill="#FFFFFF" d="M502,434c-5-7-38-22-45-31s-1-18-5-17s-11,22-16,26s-6,5-10,0s1-8,16-29
			c9.506-13.309,22.625-26.626,30.961-58.007c-4.458-10.347-4.52-22.625-11.362-31.976c-9.486-12.964-23.738-20.737-38.928-25.195
			c-32.498-9.539-63.351,6.334-95.575,9.015c-0.375,0.553-0.892,1.058-1.572,1.481c-13.74,8.552-30.715,3.292-45.359,0.438
			c-8.511-1.658-16.722-1.818-25.376-1.719c-10.282,0.118-20.698,0.317-30.884,1.861c-10.608,1.608-21.139,4.166-31.644,6.355
			c-9.895,2.062-19.894,4.086-29.57,7.039c-11.916,3.637-23.173,9.014-34.659,13.781C135.505,351.561,151.773,367.282,163,383
			c15,21,20,24,16,29s-5,4-10,0s-12-25-16-26s2,8-5,17s-40,24-45,31s-6,21,0,30s17,14,25,16s42-2,48,0s45,45,47,59s-1,34,4,39
			s7-7,19-7s11,8.219,18,8.219s2.219-12.109,12.109-12.109S281,575,290,575c7.64,0,1-9.5,12.5-9.5S309,575,315,575
			c9,0,4-7.891,13.891-7.891S334,579.219,341,579.219S347,571,359,571s14,12,19,7s2-25,4-39s41-57,47-59s40,2,48,0s19-7,25-16
			S507,441,502,434z M224.667,374C202,373.667,181,371.667,180,354.333s17-23.667,41.333-25c22.31-1.222,45,6.333,45,22
			S247.334,374.334,224.667,374z M323.667,469.667c-4,3-3.333,4.333-8.333,4.333s-6.666-7.333-12-7.333
			c-5.333,0-9.667,7.333-16.667,7.333s-8.333-2.667-9.333-6s3-41.777,5.333-47.055s6.667-17.611,18.333-17.611
			c12,0,16.277,9.611,18.639,18.639S327.667,466.667,323.667,469.667z M367.667,382.333c-17.121,0-31-13.879-31-31s13.879-31,31-31
			s31,13.879,31,31S384.788,382.333,367.667,382.333z"/>
	</g>
</g>
</svg>
