<?xml version="1.0" encoding="utf-8"?>
<!DOCTYPE svg PUBLIC "-//W3C//DTD SVG 1.1//EN" "http://www.w3.org/Graphics/SVG/1.1/DTD/svg11.dtd">
<svg version="1.1" xmlns="http://www.w3.org/2000/svg" xmlns:xlink="http://www.w3.org/1999/xlink" x="0px" y="0px"
	 width="600px" height="450px" viewBox="0 0 595.28 841.89" enable-background="new 0 0 595.28 841.89" xml:space="preserve">
	<rect width="595.28" height="841.89"/>
<rect x="-50000" y="-50000" width="100000" height="100000" fill="#C91F37" /><text x="100" y="100" style="text-anchor: middle;dominant-baseline: hanging;" fill="#FFFFFF" font-family="'Helvetica'" font-size="30">600 x 450</text><g>
	<path fill="#FFFFFF" d="M126.496,288c4.677,0,8.504,3.827,8.504,8.504v9.992c0,4.677-3.827,8.504-8.504,8.504h-18.992
		c-4.677,0-8.504,3.827-8.504,8.504v45.992c0,4.677-2.56,5.66-5.689,2.183l-69.622-77.358C20.56,290.845,21.827,288,26.504,288
		H126.496z"/>
</g>
<g>
	<path fill="#FFFFFF" d="M449.504,288c-4.677,0-8.504,3.827-8.504,8.504v9.992c0,4.677,3.827,8.504,8.504,8.504h18.992
		c4.677,0,8.504,3.827,8.504,8.504v45.992c0,4.677,2.56,5.66,5.688,2.183l69.623-77.358c3.129-3.477,1.861-6.321-2.815-6.321
		H449.504z"/>
</g>
<g>
	<path fill="#FFFFFF" d="M459.496,324c4.677,0,8.504,3.827,8.504,8.504v162.992c0,4.677-3.827,8.504-8.504,8.504h-18.992
		c-4.677,0-12.331,0-17.008,0H152.504c-4.677,0-12.331,0-17.008,0h-18.992c-4.677,0-8.504-3.827-8.504-8.504V332.504
		c0-4.677,3.827-8.504,8.504-8.504h18.992c4.677,0,8.504-3.827,8.504-8.504V152.504c0-4.677,3.827-8.504,8.504-8.504h270.992
		c4.677,0,8.504,3.827,8.504,8.504v162.992c0,4.677,3.827,8.504,8.504,8.504H459.496z M306,288.496c0,4.677,3.827,8.504,8.504,8.504
		h72.992c4.677,0,8.504-3.827,8.504-8.504v-27.992c0-4.677-3.827-8.504-8.504-8.504h-72.992c-4.677,0-8.504,3.827-8.504,8.504
		V288.496z M180,288.496c0,4.677,3.827,8.504,8.504,8.504h72.992c4.677,0,8.504-3.827,8.504-8.504v-27.992
		c0-4.677-3.827-8.504-8.504-8.504h-72.992c-4.677,0-8.504,3.827-8.504,8.504V288.496z M284,350.504
		c0-4.677-3.827-8.504-8.504-8.504h-0.992c-4.677,0-8.504,3.827-8.504,8.504v54.992c0,4.677,3.827,8.504,8.504,8.504h0.992
		c4.677,0,8.504-3.827,8.504-8.504V350.504z M311,350.504c0-4.677-3.827-8.504-8.504-8.504h-0.992c-4.677,0-8.504,3.827-8.504,8.504
		v54.992c0,4.677,3.827,8.504,8.504,8.504h0.992c4.677,0,8.504-3.827,8.504-8.504V350.504z"/>
</g>
<g>
	<path fill="#FFFFFF" d="M369,639.496c0,4.677-3.827,8.504-8.504,8.504H215.504c-4.677,0-8.504-3.827-8.504-8.504v-9.992
		c0-4.677,3.827-8.504,8.504-8.504h144.992c4.677,0,8.504,3.827,8.504,8.504V639.496z"/>
</g>
<path fill="#FFFFFF" d="M122,513.5c0,0-11.5,23-10.5,26.5s30,21.5,34,19.5s16.5-44,14.5-46S126.5,511.5,122,513.5z"/>
<path fill="#FFFFFF" d="M177,512c-3.493,1.746-10,62-8,64.5s40.5,2.5,42.5,0s14.5-63.5,13-64.5S181,510,177,512z"/>
<path fill="#FFFFFF" d="M243,512c-2.78,1.589-6,42-2.5,44.5s32-2.5,34-4.5s-1-39.5-3-40S246.5,510,243,512z"/>
<path fill="#FFFFFF" d="M317.5,512c-2.937,1.175-29,62.75-26.5,66.375S315.5,573,317.5,572s17-1.5,20-5.5s14-53,11-54.5
	S322.5,510,317.5,512z"/>
<path fill="#FFFFFF" d="M359.5,512c-4.295,3.682,6,51,9.5,53s36.5-9.5,37.5-13s-9-38.5-12-40S363,509,359.5,512z"/>
<path fill="#FFFFFF" d="M410.5,510.989c-0.949,1.269,6.5,31.423,9.5,33.967s26.5,4.265,28-0.346s-9-32.132-12-33.621
	S413.5,506.979,410.5,510.989z"/>
<path fill="#FFFFFF" d="M215.5,614c2.624,3.061,28.5,3,32,0s5.5-29,0-32.5s-38.5,3.5-40.5,8S212.5,610.5,215.5,614z"/>
<path fill="#FFFFFF" d="M268.5,613.5c6.66,2.772,30.78,2.5,34.141,0c3.359-2.5,8.859-21.5,4.859-24s-37.58-1-39.29,5
	S264.626,611.888,268.5,613.5z"/>
<path fill="#FFFFFF" d="M328.5,613.431c2.552,2.623,29-0.431,32.5-1.931s21.5-24,17.5-27.5s-43,1.686-46,4.343
	S326,610.861,328.5,613.431z"/>
</svg>
