<?xml version="1.0" encoding="utf-8"?>
<!DOCTYPE svg PUBLIC "-//W3C//DTD SVG 1.1//EN" "http://www.w3.org/Graphics/SVG/1.1/DTD/svg11.dtd">
<svg version="1.1" xmlns="http://www.w3.org/2000/svg" xmlns:xlink="http://www.w3.org/1999/xlink" x="0px" y="0px"
	 width="600px" height="450px" viewBox="0 0 595.28 841.89" enable-background="new 0 0 595.28 841.89" xml:space="preserve">
	<rect width="595.28" height="841.89"/>
<rect x="-50000" y="-50000" width="100000" height="100000" fill="#c3899d" /><text x="100" y="100" style="text-anchor: middle;dominant-baseline: hanging;" fill="#FFFFFF" font-family="'Helvetica'" font-size="30">600 x 450</text><g id="Layer_2">
	<path fill="#FFFFFF" d="M224.5,412c19.414-14.119,11.5-36.5,3.5-44.5c-10.277-10.277-36.5-39.5-48-51c-9.334-9.334-31-28-35.5-48
		s2-46.5,24-65s86-26,110-23.5S358,195,380,208s48.5,44.5,42,97.5s-35.5,61-45,68s-37,22-36.5,32.5s12,20.5,13.5,32
		s-16,18.5-21.5,19s-22.5-0.5-36.5-1.5s-35-0.5-45.5-2s-26.5-12-33-16.5s-6-11-3-16C217.046,416.756,219,416,224.5,412z M172,233.5
		c-7.356,11.795-12.5,29.5-6.5,41.5s33,44,42.5,51.5s40.5,22.5,54,15.5s19.75-31.25,16.5-48.5c-3.977-21.105-17.5-50-26-60
		s-25-27.5-44.5-22S176.155,226.838,172,233.5z M325,244c-9.61,11.828-25,27-29.5,45c-2.438,9.75,2,40.627,23.5,54.813
		S360.5,357.5,376.5,349s38.5-44.5,32-77.5s-18-51-37-51S338,228,325,244z M260.5,380c0.5,3.5,7,9.5,9.497,9s5.503-4.5,8.649-11.5
		S275.5,356,271,355.006s-9.058,9.202-10.5,13.494C258.63,374.064,260,376.5,260.5,380z M297.25,365.5c-1.5,5.5-3.25,9-2.75,14.5
		s2,12,5.5,13.5s10.5-8.5,11-13s5.5-16,1.5-19.5s-8-5-10.5-3.5C300.767,358.24,298,362.75,297.25,365.5z"/>
	<path fill="#FFFFFF" d="M153.5,391.5c-5.604,2.802-8.5,17.5-7.5,21.5s7.5,2,10,2s12.5-14.5,11.5-18.5S155.5,390.5,153.5,391.5z"/>
	<path fill="#FFFFFF" d="M142,428c-3,3.5-3,12-3,14.5s4,2.5,10.5,1.5s10.5-7.5,10-10.5S145.52,423.894,142,428z"/>
	<path fill="#FFFFFF" d="M138.5,372.5c-8.994,0.6-19.5,13.5-22,20.5s-5.5,55-3,66.5s11.5,68.5,39.5,93s86,36,113.5,36
		s80.5-1.5,108-18.5s68-48.5,83-79.5s23.5-81.5,17.5-93S458.5,380,454.5,381S439,391.5,437,408.5c-1.349,11.464,2.5,28.5-3.5,48.5
		c-5.851,19.501-26.5,46.5-52.5,66c-29.624,22.218-83.5,37-121.5,37c-43.526,0-80.035-11.334-92-23
		c-20-19.5-33.745-48.523-32.5-81.5c1-26.5,10.5-50,12.5-63S146,372,138.5,372.5z"/>
	<path fill="#FFFFFF" d="M139.5,475.5c0-4.925,11.5-14,18.5-13s19.5,5,16.5,15.5s-6,17.5-16.5,19.5s-10.5,0.5-13-1.5
		S139.5,478.5,139.5,475.5z"/>
	<path fill="#FFFFFF" d="M163.5,526c-1.7-3.06,4-8,7-9.5s13.5-5,18-4.5s6,8,5.5,12s-11.5,14-15,15S166,530.5,163.5,526z"/>
	<path fill="#FFFFFF" d="M206.5,549c-2.013-2.684,5.5-14,8.5-16.5s11.5-6.5,16-5.5s12,5.5,11,13s-5.5,13-9,14.5S211,555,206.5,549z"
		/>
	<path fill="#FFFFFF" d="M280,555c-5.048-1.01-6.5-5-6.5-9s8.5-23,12.5-24s11.5,0.5,13.5,3.5s4.5,16,3,21S282.5,555.5,280,555z"/>
	<path fill="#FFFFFF" d="M340.5,538.5c-3-1.5-8.5-9-8.5-13.5s2.5-15.5,7-16.5s16.5,5,18,7.5s6,11,5,13S342.5,539.5,340.5,538.5z"/>
	<path fill="#FFFFFF" d="M395,501.5c-3.605,1.803-15-5-15.5-9s0-19,12-19.5s15,0.5,17,4.5s4.5,4,4,7S399,499.5,395,501.5z"/>
	<path fill="#FFFFFF" d="M426.5,455.5c3.305-2.754,5-11,3-16s-10-8-15-5.5s-22.5,6.5-18.5,15s7,7.5,11,6.5S423.5,458,426.5,455.5z"
		/>
	<path fill="#FFFFFF" d="M428.5,416c2.084-2.431,6-16,5-19s-15-5-18.5-2s-14,14.5-5.5,18S425.5,419.5,428.5,416z"/>
	<path fill="#FFFFFF" d="M207,429.5c-2.264-2.264-8,0.5-13.5-2s-14-8.5-17.5-7s-4.5,13.5-3.5,19s6,13,12,13s24-12,24-15
		S208.5,431,207,429.5z"/>
	<path fill="#FFFFFF" d="M224.5,448c2.187-1.57,9,3.5,9.5,3s2.5,36.5,1.5,38s-4,6.5-9.5,8s-17.5,2-20-0.5S205,462,224.5,448z"/>
	<path fill="#FFFFFF" d="M264.5,461.5c2.851-2.851,14-2,16-1.5s12,25,8,37S276,510.5,276,510.5s-8.5,2-12-0.5s-7.5-18-6.5-26.5
		S262.5,463.5,264.5,461.5z"/>
	<path fill="#FFFFFF" d="M310,462.5c2.4-2.118,7.5-2.5,11,0.5s13,25,12,30.5s-4.5,6-7.5,7.5s-16,1.5-19-0.5S301.5,470,310,462.5z"/>
	<path fill="#FFFFFF" d="M347.5,455c-2.379,2.974,4,25,11,26s18-1.5,22-9.5s3-14.5-1.5-20s-18.5-8-21.5-6S349.5,452.5,347.5,455z"/>
</g>
</svg>
