<?xml version="1.0" encoding="utf-8"?>
<!DOCTYPE svg PUBLIC "-//W3C//DTD SVG 1.1//EN" "http://www.w3.org/Graphics/SVG/1.1/DTD/svg11.dtd">
<svg version="1.1" xmlns="http://www.w3.org/2000/svg" xmlns:xlink="http://www.w3.org/1999/xlink" x="0px" y="0px"
	 width="600px" height="450px" viewBox="0 0 595.28 841.89" enable-background="new 0 0 595.28 841.89" xml:space="preserve">
	<rect width="595.28" height="841.89"/>
<rect x="-50000" y="-50000" width="100000" height="100000" fill="#2c3e50" /><text x="100" y="100" style="text-anchor: middle;dominant-baseline: hanging;" fill="#FFFFFF" font-family="'Helvetica'" font-size="30">600 x 450</text><g id="Layer_2">
	<path fill="#FFFFFF" d="M240.457,544.764c-4.024,3.956-18.218,3.588-22.573,0c-4.356-3.588-3.546-18.184,0-22.573
		c3.547-4.39,18.583-3.991,22.573,0C244.448,526.182,244.482,540.808,240.457,544.764z"/>
	<path fill="#FFFFFF" d="M274.791,544.764c-4.024,3.956-18.218,3.588-22.573,0c-4.356-3.588-3.546-18.184,0-22.573
		c3.547-4.39,18.583-3.991,22.573,0S278.816,540.808,274.791,544.764z"/>
	<path fill="#FFFFFF" d="M308.316,544.764c-4.024,3.956-18.218,3.588-22.574,0c-4.356-3.588-3.546-18.184,0-22.573
		c3.547-4.39,18.583-3.991,22.574,0S312.342,540.808,308.316,544.764z"/>
	<path fill="#FFFFFF" d="M341.79,544.764c-4.024,3.956-18.218,3.588-22.573,0s-3.547-18.184,0-22.573s18.583-3.991,22.573,0
		S345.815,540.808,341.79,544.764z"/>
	<path fill="#FFFFFF" d="M303.154,173.507c79.105,0,173.18,47.761,173.18,164.179S368.543,447,368.543,447
		s0.328,58.999,0.328,78.746c0,6.596-4.328,18.657-14.657,18.657c-7.042,0-1.374-23.107-6.338-28.07c-4.833-4.833-34.333-3-46.667-3
		h-42.875c-12.333,0-41.833-1.833-46.667,3c-4.964,4.963,0.704,28.07-6.338,28.07c-10.329,0-14.657-12.062-14.657-18.657
		C190.672,505.999,191,447,191,447S83.209,454.104,83.209,337.687s94.075-164.179,173.179-164.179H303.154z M178.269,289.925
		c-28.851,0-52.239,23.388-52.239,52.239s23.388,52.239,52.239,52.239s52.239-23.388,52.239-52.239S207.119,289.925,178.269,289.925
		z M280.502,452.166c10.833,0-1.167,16.501,15.5,16.501c8.638,0,16.833-14.334,16.833-28.167c0-17.5-2.5-34.5-31.5-34.5h-3.333
		c-29,0-31.5,17-31.5,34.5c0,13.833,8.196,28.167,16.833,28.167c16.667,0,4.667-16.501,15.5-16.501H280.502z M379.936,289.926
		c-28.852,0-52.239,23.388-52.239,52.239s23.388,52.238,52.239,52.238c28.85,0,52.238-23.387,52.238-52.238
		S408.785,289.926,379.936,289.926z"/>
	<path fill="#FFFFFF" d="M240.374,579.764c-4.024,3.956-18.218,3.588-22.573,0c-4.356-3.588-3.546-18.184,0-22.573
		c3.547-4.39,18.583-3.991,22.573,0C244.365,561.182,244.399,575.808,240.374,579.764z"/>
	<path fill="#FFFFFF" d="M274.708,579.764c-4.024,3.956-18.218,3.588-22.573,0c-4.356-3.588-3.546-18.184,0-22.573
		c3.547-4.39,18.583-3.991,22.573,0S278.733,575.808,274.708,579.764z"/>
	<path fill="#FFFFFF" d="M308.233,579.764c-4.024,3.956-18.218,3.588-22.574,0c-4.356-3.588-3.546-18.184,0-22.573
		c3.547-4.39,18.583-3.991,22.574,0S312.259,575.808,308.233,579.764z"/>
	<path fill="#FFFFFF" d="M341.707,579.764c-4.024,3.956-18.218,3.588-22.573,0s-3.547-18.184,0-22.573s18.583-3.991,22.573,0
		S345.732,575.808,341.707,579.764z"/>
	<path fill="#FFFFFF" d="M293.337,613.668c0,0,55.334,0,78.667,0s30.333-7.333,30.333-30.333c0-13.334,0-92.333,0-107.333
		s0-15.333-13.333-15.333c-12,0-12,0-12,16c0,9,0,86.97,0,94.651c0,11.349-3.682,16.841-16.841,16.841s-66.826,0-66.826,0h-27.334
		c0,0-53.667,0-66.826,0s-16.841-5.492-16.841-16.841c0-7.682,0-85.651,0-94.651c0-16,0-16-12-16
		c-13.333,0-13.333,0.333-13.333,15.333s0,93.999,0,107.333c0,23,7,30.333,30.333,30.333s78.667,0,78.667,0H293.337z"/>
</g>
</svg>
